<svg xmlns="http://www.w3.org/2000/svg" viewBox="0 0 512 512"><defs><radialGradient id="a" cx="50%" cy="83.452%" r="100%" fx="50%" fy="83.452%" gradientTransform="matrix(0 -1 1.26138 0 -.553 1.335)"><stop offset="0%" stop-color="#074DA1"/><stop offset="100%" stop-color="#040523"/></radialGradient><radialGradient id="b" cx="98.894%" cy="100.539%" r="263.142%" fx="98.894%" fy="100.539%" gradientTransform="matrix(.36346 0 0 1 .63 0)"><stop offset="1%" stop-color="#FFF"/><stop offset="4%" stop-color="#C6FFFF"/><stop offset="9%" stop-color="#80FFFF"/><stop offset="13%" stop-color="#49FFFF"/><stop offset="17%" stop-color="#21FFFF"/><stop offset="20%" stop-color="#09FFFF"/><stop offset="22%" stop-color="#0FF"/><stop offset="28%" stop-color="#01F6FF" stop-opacity=".96"/><stop offset="39%" stop-color="#04DEFF" stop-opacity=".87"/><stop offset="53%" stop-color="#08B6FF" stop-opacity=".71"/><stop offset="69%" stop-color="#0E7FFF" stop-opacity=".5"/><stop offset="87%" stop-color="#1639FF" stop-opacity=".22"/><stop offset="100%" stop-color="#1C00FF" stop-opacity="0"/></radialGradient></defs><path fill="url(#a)" d="M0 0h512v512H0z"/><g fill-rule="nonzero"><path fill="#FFF" d="M238.517 286.243l.459.067c3.42.466 6.785 1.082 9.36 2.236a9.691 9.691 0 015.061 4.781c1.94 3.623 2.064 8.673.315 12.508-1.316 2.851-4.19 5.237-6.816 6.51a25.225 25.225 0 01-8.498 2.308 30.205 30.205 0 01-16.057-2.862c-2.869-1.407-6.372-3.824-8.142-6.944a6.93 6.93 0 01.325-7.431c2.518-3.457 7.915-4.218 11.986-4.073 3.096.119 8.679 1.081 11.625 2.127.815.3 3.823 1.47 4.35 2.013.4.354.571.903.443 1.423-.67 2.07-5.675 3.151-7.115 3.374-3.865.59-5.872-.875-10.263-2.619a15.253 15.253 0 00-3.653-1.004c-1.997-.191-4.406.368-4.783 2.552-.19 1.128 1.125 2.178 2.126 2.623a16.146 16.146 0 006.594 1.413c6.852.109 14.556-1.035 20.16-5.004.763-.549 1.516-1.35 1.547-2.365 0-2.07-3.55-3.296-3.55-3.296-3.777-1.579-10.753-2.35-14.349-2.645-3.767-.326-9.7-.817-11.13-1.035a16.698 16.698 0 01-4.329-1.076 5.418 5.418 0 01-2.894-3.307c-.655-2.587.18-5.744 1.61-7.803 3.746-5.403 12.517-7.452 19.09-8.28 6.347-.797 16.6-.787 22.827 2.536.965.517 1.455.998 1.254 2.028a5.013 5.013 0 01-3.612 3.731c-1.842.585-5.675.818-7.337.921-7.507.425-16.588.202-23.735 2.163-.562.156-1.548.42-1.842.771-1.12 1.222 2.064 1.553 2.76 1.708.151.039.305.065.46.078l15.753 1.873m-44.684-33.59s1.223-1.837 2.245-3.229a58.233 58.233 0 017.776-8.202c.779-.663 1.692-1.418 1.692-1.418s-1.43.15-2.244.316c-1.925.377-4.753 2.261-6.192 3.477-2.327 2.003-4.892 5.253-3.73 8.14.164.409.428.957.428.957m12.95 3.478a24.456 24.456 0 0010.32-3.105c3.147-1.765 7.78-5.206 7.301-9.263a3.404 3.404 0 00-2.064-2.758c-1.403-.61-2.136-.518-3.932 0-1.09.29-2.132.736-3.095 1.325-3.612 2.1-8.736 6.603-11.512 10.2-.645.848-1.29 1.79-1.8 2.442-.32.398-.573.77-.516.87.108.403 3.9.367 5.34.268m-9.37 6.904c-.45.66-.852 1.351-1.202 2.07a4.1 4.1 0 01-.903 1.034c-.96.71-1.77.746-2.699-.077a6.612 6.612 0 01-2.1-4.658c.047-.743.033-1.489-.041-2.23-.232-1.071-1.306-2.179-1.884-3.208a12.572 12.572 0 01-1.295-4.689c-.237-4.248 1.997-8.16 4.902-11.25a32.312 32.312 0 0110.903-7.483c3.931-1.666 9.69-2.794 14.008-1.299a10.72 10.72 0 014.345 2.94c.164.254.364.484.593.683.353.128.72.21 1.094.243a11.018 11.018 0 014.17 1.982c1.624 1.408 2.517 2.753 2.93 4.704.825 3.933-1.43 8.243-3.999 10.867-4.427 4.533-8.761 7.685-14.385 9.915-2.472.968-6.326 1.873-9.128 1.62-.872-.073-1.765-.3-2.616-.357a12.081 12.081 0 01-2.182-.564c-.212-.16-.48-.3-.516-.249m5.015 8.704c.225.047.446.113.66.197 1.976.75 2.787 2.588 3.272 4.595 1.13 4.658 1.61 15.007 1.795 19.049.134 3.038.212 6.023.34 9.025.104 2.54.31 5.92-.216 8.28-.215.958-.78 1.8-1.584 2.36-.94.6-3.07.651-4.241.403-2.89-.6-3.829-2.458-4.242-5.325-.98-6.836-.516-20.254.073-25.916.19-1.868.892-7.865 1.867-10.35.336-.848 1.032-2.55 2.276-2.312m-87.88 11.38s-4.299.304-7.26.63c-3.762.41-10.836 1.636-14.922 3.105-1.223.44-3.71 1.486-3.927 2.748-.217 1.263.583 2.334 1.486 3.395.516.61 3.467 3.457 4.293 4.14 3.467 2.898 10.495 7.374 15.675 9.553 1.775.75 4.716 1.785 4.716 1.785s-.217-8.399-.18-16.674c.025-4.372.118-8.688.118-8.688m78.83 3.343c.248 2.256-.33 6.525-.428 7.084a33.443 33.443 0 01-1.32 4.658 53.016 53.016 0 01-2.39 4.792 39.631 39.631 0 01-6.748 8.28c-7.405 6.416-18.86 10.07-28.688 11.275a73.155 73.155 0 01-21.398-.616c-2.43-.445-6.052-1.278-6.052-1.278.007.824-.027 1.648-.103 2.469-.13.709-.332 1.403-.604 2.07a3.277 3.277 0 01-2.58 1.847c-1.48.28-3.055.367-4.422-.217-2.244-.947-3.05-3.053-3.441-5.486-.32-1.945-.65-5.325-.65-5.325s-1.678-.796-3.096-1.495a80.13 80.13 0 01-11.93-7.312c-1.032-.745-5.268-4.316-6.191-5.206-2.637-2.51-5.005-5.004-6.806-8.207-1.404-2.5-1.806-4.72-.743-7.37 1.47-3.689 6.754-6.473 10.366-8.057 2.657-1.18 10.902-3.88 14.328-4.378 1.62-.232 4.128-.688 4.283-.786.056-.041.108-.088.155-.14.077-.114.211-3.772.18-5.107-.03-1.335.976-9.952 1.295-11.778.17-.989.919-4.792 1.677-5.791.516-.673 1.383-.621 2.1-.176 3.927 2.448 5.124 10.95 5.413 15.276.175 2.634.263 6.598.263 6.598s4.51-.134 7.286-.057c2.837.129 5.664.442 8.462.937 3.575.574 10.556 2.106 14.56 4.14 3.297 1.676 6.383 4.497 7.384 7.488.929 2.742.79 4.657-.624 7.11-1.605 2.805-4.618 4.875-7.663 5.04-.908.052-4.323-.403-5.376-1.221a.939.939 0 01-.093-1.31c.114-.139 1.708-.988 2.652-1.49.446-.237.86-.529 1.233-.869.785-.693 1.486-1.454 1.409-2.35-.108-1.158-1.331-1.873-2.497-2.333-5.465-2.174-16.377-3.985-21.671-4.3-2.064-.12-5-.223-5-.223l.624 29.212s2.425.466 4.34.776c1.099.166 5.748.585 6.986.616 9.411.248 19.917-.595 28.554-4.683 3.792-1.79 7.27-4.021 9.901-7.038a20.465 20.465 0 004.81-15.157c-.517-6.21-4.902-13.63-8.39-18.112-9.226-11.902-25.04-21.688-38.956-27.427-14.205-5.853-28.24-9.221-43.316-9.785-3.886-.145-12.384.051-16.646 1.236-.609.176-1.228.383-1.795.518-.477.119-.932.31-1.352.564a2.775 2.775 0 00-.212.207s.263.145.516.253c.454.197 2.363.316 3.354.518.882.17 1.806.636 2.167 1.289.361.652.392 1.102-.026 1.614-.97 1.185-4.643.983-6.227.73-1.584-.254-3.757-.782-4.128-2.241-.444-1.718.371-3.4 1.254-4.963 1.764-3.105 4.298-4.735 8.002-5.754a81.273 81.273 0 0116.888-2.66c11.254-.424 21.903 1.552 32.81 4.87a156.13 156.13 0 0120.382 7.912 158.998 158.998 0 0114.855 8.388c1.197.792 8.209 5.957 9.287 6.862 2.27 1.868 5.243 4.544 7.394 6.686 4.164 4.14 9.344 10.48 11.868 15.525.603 1.205 1.073 2.39 1.857 3.788a32.898 32.898 0 011.605 4.14c.19.822.47 2.023.516 2.07.057.455.603 2.913.547 3.865v-.005zm141.486-6.443c-5.273 1.216-19.133 1.894-19.133 1.894l-1.744 5.49s6.925-.594 11.96-.067c0 0 1.636-.186 1.827 1.858a31.658 31.658 0 01-.16 3.964s-.108 1.242-1.857 1.553c-1.899.315-14.927.822-14.927.822l-2.11 7.157s-.785 1.656.97 1.18c1.635-.435 15.283-3.007 17.063-2.64 1.904.477 4.014 3.023 3.405 5.347-.727 2.882-14.354 11.591-22.651 10.986 0 0-4.355.28-8.044-5.62-3.431-5.625 1.3-16.27 1.3-16.27s-2.167-4.973-.593-6.66c0 0 .934-.849 3.658-1.035l3.338-6.924s-3.802.264-6.062-2.54c-2.11-2.666-2.286-3.887-.671-4.622 1.728-.859 17.574-3.757 28.471-3.39 0 0 3.788-.372 7.074 6.21 0 0 1.59 2.666-1.114 3.307zm-41 26.64c-1.398 3.297-5.087 6.816-9.669 4.627-4.582-2.19-11.733-16.99-11.733-16.99s-2.74-5.516-3.266-5.37c0 0-.588-1.077-.955 4.951-.366 6.03.073 17.709-2.316 19.551-2.26 1.847-5 1.113-6.42-1.035-1.29-2.132-1.826-7.183-1.124-16.042.83-8.89 2.89-18.35 5.52-21.294 2.632-2.945 4.738-.808 5.558-.032 0 0 3.514 3.193 9.313 12.575l1.032 1.74s5.268 8.858 5.82 8.843c0 0 .429.404.816.109.552-.156.325-2.997.325-2.997s-1.089-9.661-5.893-26.014a7.69 7.69 0 01-.237-3.948c.485-1.93 2.415-1.035 2.415-1.035s7.45 3.757 11.062 15.918c3.612 12.16 1.182 23.142-.237 26.459l-.01-.016zm80.162-7.296c-3.385 5.935-12.961 18.355-25.68 15.426-4.2 10.215-7.74 20.55-9.747 36.012 0 0-.443 3.006-2.935 1.966-2.467-.87-6.533-4.988-7.353-10.675-.882-7.478 2.435-20.12 9.22-34.615-1.981-3.23-3.328-7.835-2.177-14.402 0 0 1.708-12.186 13.931-23.167 0 0 1.466-1.273 2.312-.88.934.393.516 4.357-.238 6.287-.753 1.93-6.191 11.354-6.191 11.354s-3.39 6.37-2.436 11.385c6.404-9.874 20.954-29.777 29.973-23.5 3.029 2.174 4.422 6.904 4.427 12.001 0 4.471-1.078 9.232-3.096 12.792l-.01.016zm-2.631-15.628s-.516-3.923-4.324.398c-3.292 3.648-9.226 10.48-14.004 19.768 5.016-.564 9.85-3.296 11.31-4.657 2.38-2.117 7.91-7.856 7.018-15.483v-.026zm72.706-.896h-23.317a184.926 184.926 0 00-2.9-23.659 1.74 1.74 0 00-1.703-1.423h-5.402c-.472.002-.92.215-1.219.582-.299.366-.42.847-.329 1.312a171.997 171.997 0 012.977 23.199h-22.43c-.5-.002-.98.197-1.336.55a1.897 1.897 0 00-.557 1.339v4.864c0 .504.2.987.555 1.343a1.89 1.89 0 001.339.556h22.75v3.286c.029 6.443-.306 12.882-1.002 19.287-.05.497.11.993.441 1.366.332.373.805.589 1.303.595h4.984a1.885 1.885 0 001.879-1.708c.679-6.49 1.004-13.013.975-19.54v-3.286h22.986a1.902 1.902 0 001.894-1.899v-4.864a1.902 1.902 0 00-1.894-1.9h.006z"/><path fill="url(#b)" d="M348.706 100.35C326.304 45.107 275.29 6.808 216.128.817 156.966-5.175 99.348 22.123 66.386 71.759a1.873 1.873 0 00-.222 1.661c.191.56.63.999 1.187 1.19l4.174 1.413c.242.077.495.117.748.12a2.32 2.32 0 001.935-1.036c28.294-41.809 75.408-66.837 125.79-66.823 61.108.02 116.277 36.703 140.086 93.148a2.193 2.193 0 002.018 1.345h4.99a1.748 1.748 0 001.444-.776 1.738 1.738 0 00.17-1.65z" transform="translate(66 146)"/></g></svg>
