<svg xmlns="http://www.w3.org/2000/svg" viewBox="0 0 317 90"><path fill="#b3b3b3" d="m82.65 41.77-4.32-9.42h-.06l-4.32 9.42h8.7zM59.18 54l17.87-38.42c.19-.37.56-.6.97-.63h.57c.42.02.79.26.98.63L97.44 54a1.01 1.01 0 0 1-.98 1.49h-6.33c-1.03 0-1.49-.35-2-1.43l-2.06-4.51H70.52l-2.03 4.57a2.12 2.12 0 0 1-2.06 1.37h-6.27a1.01 1.01 0 0 1-.98-1.49zm41.22-37.4a1.09 1.09 0 0 1 1.08-1.08h6.8a1.13 1.13 0 0 1 1.08 1.09V47.1h13.59a1.08 1.08 0 0 1 1.09 1.07v6.23c0 .6-.49 1.09-1.09 1.09h-21.47a1.09 1.09 0 0 1-1.08-1.1V16.6zm27.46 0c0-.6.49-1.08 1.09-1.08h6.76c.59.02 1.06.5 1.08 1.09V47.1h13.6c.6 0 1.09.48 1.09 1.08v6.22c0 .6-.48 1.08-1.08 1.09h-21.45a1.09 1.09 0 0 1-1.1-1.1V16.6zm45.65 30.33a11.43 11.43 0 1 0-11.37-11.5v.13a11.44 11.44 0 0 0 11.37 11.36m0-31.97a20.56 20.56 0 1 1-.1 0h.1m44.3 0a19.16 19.16 0 0 1 13.82 5.31 1.05 1.05 0 0 1 .06 1.6l-4.45 4.63a1 1 0 0 1-1.42 0 11.7 11.7 0 0 0-7.71-2.92c-6.46 0-11.24 5.37-11.24 11.77A11.31 11.31 0 0 0 217.9 46.9a12.1 12.1 0 0 0 7.86-2.74 1.12 1.12 0 0 1 1.48.06l4.46 4.74a1.14 1.14 0 0 1-.06 1.54 19.58 19.58 0 0 1-13.83 5.54 20.56 20.56 0 1 1 0-41.11zm19 1.66a1.12 1.12 0 0 1 1.1-1.1h6.84a1.13 1.13 0 0 1 1.09 1.1V54.4a1.13 1.13 0 0 1-1.1 1.09h-6.83a1.12 1.12 0 0 1-1.1-1.1V16.6zm14.55-.06a1.08 1.08 0 0 1 1.09-1.03h1.17c.63.07 1.22.35 1.67.8l21.37 20.55h.06V16.6a1.08 1.08 0 0 1 1.07-1.1h6.86c.59.03 1.06.5 1.08 1.1v37.85a1.07 1.07 0 0 1-1.08 1.03h-1.1a2.6 2.6 0 0 1-1.8-1.02l-21.3-21.37h-.07v21.3c0 .6-.48 1.09-1.09 1.09h-6.8a1.12 1.12 0 0 1-1.09-1.1l-.04-37.84zm64.71 7.36a1.07 1.07 0 0 0 1.12-1.03V16.6a1.08 1.08 0 0 0-1.07-1.1h-8.13l2.83-1.97a1.17 1.17 0 0 0-.05-1.73l-2.65-2.85c-.39-.44-1.2-.14-1.48.16l-6.55 6.28a.69.69 0 0 1-.07.1h-7.58c-.6 0-1.1.48-1.1 1.08V54.4c0 .6.5 1.09 1.1 1.09h23.63a1.08 1.08 0 0 0 1.12-1.05v-6.26a1.07 1.07 0 0 0-1.06-1.08h-15.84v-7.71h13.02c.6 0 1.09-.49 1.09-1.1v-6.21a1.12 1.12 0 0 0-1.1-1.08h-13.04v-7.1h15.81z"/><path fill="#FFF" d="M39.25 2A2.34 2.34 0 0 0 36.6.03L26.75 1.6a7.56 7.56 0 0 1-6.47 8.51 7.56 7.56 0 0 1-8.47-6.14L2 5.53A2.34 2.34 0 0 0 .03 8.2v.01l9.31 58.77a2.33 2.33 0 0 0 2.67 1.94l9.83-1.55a7.57 7.57 0 0 1 6.3-8.65A7.57 7.57 0 0 1 36.8 65l9.82-1.55a2.33 2.33 0 0 0 1.94-2.66v-.01l-9.3-58.8z" mask="url(#mask-2)"/><path fill="#B3B3B3" d="m27.21 48.08-1.13-6.15a2.51 2.51 0 0 0-.81-1.26c-1.18-.92-4.4 1.04-2.89-6.05 1.5-7.08 3.63-3.97 5.1-4.32.49-.15.92-.45 1.24-.86l3.53-5.18a1.73 1.73 0 0 0-.14-2.1c-.98-1-2.59-2.48-3.77-2.74-2.6-.55-8.96 3.57-11.2 14.04-2.22 10.46 1.9 16.89 4.5 17.44 1.2.26 3.25-.44 4.55-.97a1.73 1.73 0 0 0 .99-1.85"/><text x="113.14" y="84" fill="#b3b3b3" stroke="#000" stroke-width="0" font-family="sans-serif" font-size="24">Publicité</text></svg>