<svg xmlns="http://www.w3.org/2000/svg" viewBox="0 0 512 512"><defs><linearGradient id="a" x1="50%" x2="50%" y1="100%" y2="7.855%"><stop offset="0%" stop-color="#141417"/><stop offset="100%" stop-color="#25292E"/></linearGradient></defs><path fill="url(#a)" d="M0 0h512v512H0z"/><path fill="#FFF" d="M296.96 117.76a5.12 5.12 0 015.12 5.12v84.48h84.48a5.12 5.12 0 015.12 5.12v71.68a5.12 5.12 0 01-5.12 5.12h-84.48v84.48a5.12 5.12 0 01-5.12 5.12h-71.68a5.12 5.12 0 01-5.12-5.12v-84.481l-89.6.001a5.12 5.12 0 01-5.12-5.12v-71.68a5.12 5.12 0 015.12-5.12l89.6-.001V122.88a5.12 5.12 0 015.12-5.12h71.68z"/></svg>
