<svg xmlns="http://www.w3.org/2000/svg" viewBox="0 0 500 500"><path fill="#e0e0e0" d="M359.1 14.3C357.6 5 348.9-1.2 339.7.2l-71.3 11.3c4.7 29.9-15.7 57.9-45.6 62.7-29.9 4.7-58-15.6-62.7-45.5L88.9 39.9C79.7 41.4 73.4 50 74.8 59.3l67.5 426.4c1.5 9.2 10.1 15.5 19.4 14.1l71.3-11.3c-4.7-29.9 15.7-57.9 45.6-62.7 29.9-4.7 58 15.6 62.7 45.5l71.3-11.3c9.2-1.5 15.5-10.1 14.1-19.4L359.1 14.3z"/><path fill="#fff" d="m271.7 343.7-8.2-44.6c-.6-3.2-3.3-7.1-5.9-9.1-8.6-6.7-31.8 7.5-20.9-43.7 10.9-51.2 26.4-28.8 36.9-31.4 3.1-.8 7.2-3.3 9.1-5.9l25.6-37.4c3-4.4 2.7-11.3-1-15.2-7.1-7.4-18.6-18-27.4-19.9-19-4-65 25.9-81.1 101.8-16.1 75.9 13.8 121.9 32.7 125.9 8.8 1.9 23.6-3.2 33.1-7 5-2.1 8.1-8.3 7.1-13.5"/></svg>