<svg xmlns="http://www.w3.org/2000/svg" viewBox="0 0 512 512"><defs><radialGradient id="a" cx="48.326%" cy="49.42%" r="6.589%" fx="48.326%" fy="49.42%" gradientTransform="scale(1 .55165) rotate(-19.072 1.679 .695)"><stop offset="0%"/><stop offset="100%" stop-opacity="0"/></radialGradient></defs><path fill="#000" d="M0 0h512v512H0z"/><g fill-rule="nonzero"><path fill="#B1060F" stroke="#000" stroke-width=".808" d="M284.76 78.282l-.141 78.89-.141 78.89-6.491-18.313v-.047l-8.42 175.625c8.279 23.292 12.7 35.736 12.747 35.783.047.047 4.75.329 10.442.61 17.215.846 38.569 2.677 54.796 4.696 3.763.47 6.961.705 7.196.517.236-.188.283-80.487.236-178.49l-.141-178.161H284.76zM158 78.047v178.349c0 98.097.094 178.443.235 178.584.141.14 6.209-.47 13.546-1.268 7.338-.798 17.45-1.832 22.483-2.254 7.714-.658 30.855-2.113 33.49-2.16.799 0 .846-3.992.94-75.557l.141-75.556 5.597 15.778c.847 2.442 1.13 3.193 1.976 5.588l8.42-175.578c-1.788-5.025-.848-2.395-2.87-8.124-6.867-19.394-12.7-35.783-12.935-36.534l-.47-1.315H158v.047z"/><path fill="#B1060F" stroke="#000" stroke-width=".808" d="M284.76 78.282l-.141 78.89-.141 78.89-6.491-18.313v-.047l-8.42 175.625c8.279 23.292 12.7 35.736 12.747 35.783.047.047 4.75.329 10.442.61 17.215.846 38.569 2.677 54.796 4.696 3.763.47 6.961.705 7.196.517.236-.188.283-80.487.236-178.49l-.141-178.161H284.76zM158 78.047v178.349c0 98.097.094 178.443.235 178.584.141.14 6.209-.47 13.546-1.268 7.338-.798 17.45-1.832 22.483-2.254 7.714-.658 30.855-2.113 33.49-2.16.799 0 .846-3.992.94-75.557l.141-75.556 5.597 15.778c.847 2.442 1.13 3.193 1.976 5.588l8.42-175.578c-1.788-5.025-.848-2.395-2.87-8.124-6.867-19.394-12.7-35.783-12.935-36.534l-.47-1.315H158v.047z"/><path fill="url(#a)" d="M0 .047v100.116l70.647 187.083c0-4.273 0-6.621.047-11.505l.141-75.556 5.597 15.778c31.044 87.906 47.741 135.053 47.835 135.147.047.047 4.75.329 10.442.61 17.215.846 38.569 2.677 54.796 4.696 3.763.47 6.961.705 7.196.517.142-.141.236-39.492.236-95.045L126.666 60.06l-.047 19.112-.141 78.89-6.491-18.313c-6.35-17.891-10.583-29.866-36.123-101.9-6.867-19.394-12.7-35.783-12.935-36.534L70.46 0H0v.047z" transform="translate(158 78)"/><path fill="#E50914" d="M158 78.047l70.788 200.279v-.094l5.597 15.778c31.09 87.86 47.788 135.006 47.882 135.1.047.047 4.75.329 10.442.61 17.215.846 38.569 2.677 54.796 4.696 3.716.47 6.961.705 7.15.517l-70.177-198.917v.047l-6.491-18.314c-6.35-17.891-10.583-29.866-36.123-101.9-6.867-19.394-12.7-35.783-12.935-36.534L228.46 78h-35.23L158 78.047z"/></g></svg>
